<svg xmlns="http://www.w3.org/2000/svg" viewBox="0 0 470.67 347.04"><defs><style>.cls-1{fill:#606d69;}.cls-10,.cls-2{fill:#fff;}.cls-2,.cls-3,.cls-4,.cls-5,.cls-6{fill-rule:evenodd;}.cls-3{fill:#e6e7e8;}.cls-4{fill:#f2e6d8;}.cls-5{fill:#decfbf;}.cls-6{fill:#e8dacb;}.cls-7{fill:#5e371c;}.cls-8{fill:#603f72;}.cls-9{fill:#e19190;}.cls-11{fill:none;stroke:#fafcfb;stroke-miterlimit:10;stroke-width:2px;}</style></defs><title>Asset 4capy-man</title><g id="Layer_2" data-name="Layer 2"><g id="Layer_4" data-name="Layer 4"><path class="cls-1" d="M419.07,341c7.1-.26,14.3-.53,21.07-2.65s13.2-6.36,16.38-12.71c7.27-14.51-4.14-34.67,6.11-47.25,1.6-2,3.78-4,3.44-6.49-.71-5.2-9.44-3.3-13.15-7-2.76-2.76-1.63-7.33-1.52-11.23.24-9-6.26-17.06-14.15-21.35s-17-5.55-25.95-6.73c4.24-3.24,3.59-10.35-.16-14.13s-9.47-4.86-14.8-4.86-10.68.9-16,.26c-8.75-1.06-16.44-6.16-24.8-8.94s-19.18-2.42-24.09,4.9c-2.1,3.14-2.79,7.15-5.31,10-3.51,3.95-9.86,4.75-12.74,9.19-2.43,3.74-1.47,8.75.36,12.82s4.44,7.88,5.23,12.27c1.41,7.86-3.27,15.33-7,22.4A104.64,104.64,0,0,0,301.55,301c-1.88,11.48-1.32,24.59,6.83,32.89,6.38,6.49,16,8.54,25.12,8.78C362,343.43,390.53,342.07,419.07,341Z"/><path class="cls-2" d="M435.28,264l-5.34,4.19"/><path d="M429.94,268.14l-.18.13h0m5.73-4.4.07.16-.14.11"/><path class="cls-2" d="M435.61,302.52,432,288.69l-8.09-10.63L418,276"/><path class="cls-3" d="M435.61,302.52l-.1-.4h0"/><path class="cls-4" d="M435.61,302.52,418,276a200.08,200.08,0,0,1,34.75-23.1l17.6,26.48C459.82,286.13,446.48,293.75,435.61,302.52Z"/><path class="cls-5" d="M418.24,275.84a200.44,200.44,0,0,1,34.51-22.9v0l-1.71,2.94c-10.91,5.67-20.33,13-30.32,20.15Z"/><path class="cls-6" d="M452.25,253.78c1.27-1.31-2.9.93.5-.84l.54.81.58.87-12,21.7-.5-.59,5.53-10.27S451.28,256,452.25,253.78Z"/><path d="M435.42,302.64l-17.6-26.48-.11-.17.15-.13a181,181,0,0,1,16.45-12.25,202.49,202.49,0,0,1,18.34-10.88l.18-.09.11.17,17.6,26.48.13.19-.19.12c-2.5,1.6-5.15,3.24-7.89,4.93C453.76,290,444,296,435.75,302.69l-.19.15-.14-.2ZM418.3,276.08l17.36,26.11c8.27-6.64,17.93-12.61,26.69-18,2.67-1.65,5.26-3.25,7.69-4.8l-17.36-26.12A202.43,202.43,0,0,0,434.55,264,181,181,0,0,0,418.3,276.08Z"/><polygon points="418 275.82 441.33 275.73 452.55 252.84 452.95 253.04 441.67 276.05 441.61 276.18 441.47 276.18 418.01 276.26 418 275.82"/><path class="cls-2" d="M70.74,46.7l-10,4.44"/><path d="M60.74,51.15l-.34.12h0M71.1,46.64l0,.28-.26.11"/><path class="cls-2" d="M56,107.12q-.07-11.52-.13-23L47.46,64.27,39,58.78"/><path class="cls-3" d="M56,107.12v-.67h0"/><path class="cls-4" d="M56,107.12,39,58.78C58.63,49.17,82.69,41,102.41,36.37L119.49,84.7C100.36,91.05,76.51,97.71,56,107.12Z"/><path class="cls-5" d="M39.42,58.56a323.22,323.22,0,0,1,63-22.2v0l-3.84,3.92C79.29,44.88,61.66,52.7,43.23,59.87Z"/><path class="cls-6" d="M101.29,37.48c2.5-1.54-4.9.3,1.11-1.12l.53,1.49.56,1.59L76.1,68.62l-.55-1.12,12.7-13.88S98.88,40.62,101.29,37.48Z"/><path d="M55.71,107.24,38.62,58.91l-.11-.3.29-.14A291.85,291.85,0,0,1,69.35,45.8a326.53,326.53,0,0,1,33-9.78l.32-.07.11.3,17.08,48.34.12.35-.35.12c-4.54,1.51-9.33,3-14.28,4.6C89.37,94.7,71.79,100.27,56.2,107.45l-.36.16-.13-.37ZM39.41,59l16.84,47.66C71.8,99.52,89.26,94,105.1,89c4.83-1.53,9.51-3,13.92-4.48L102.18,36.79a326.43,326.43,0,0,0-32.59,9.69A291.91,291.91,0,0,0,39.41,59Z"/><polygon points="39.05 58.44 75.55 67.5 102.14 36.13 102.68 36.6 75.96 68.13 75.81 68.3 75.6 68.25 38.88 59.13 39.05 58.44"/><path class="cls-2" d="M394.65,255.83,389.31,260"/><path d="M389.31,260l-.18.13h0m5.73-4.4.07.16-.14.11"/><path class="cls-2" d="M395,294.39l-3.57-13.83-8.09-10.63-5.94-2"/><path class="cls-3" d="M395,294.39l-.1-.4h0"/><path class="cls-4" d="M395,294.39l-17.6-26.48a200.08,200.08,0,0,1,34.75-23.1l17.6,26.48C419.18,278,405.85,285.62,395,294.39Z"/><path class="cls-5" d="M377.61,267.71a200.44,200.44,0,0,1,34.51-22.9v0l-1.71,2.94c-10.91,5.67-20.33,13-30.32,20.15Z"/><path class="cls-6" d="M411.62,245.65c1.27-1.31-2.9.93.5-.84l.54.81.58.87-12,21.7-.5-.59,5.53-10.27S410.64,247.9,411.62,245.65Z"/><path d="M394.79,294.51,377.18,268l-.11-.17.15-.13a181,181,0,0,1,16.45-12.25A202.49,202.49,0,0,1,412,244.61l.18-.09.11.17,17.6,26.48.13.19-.19.12c-2.5,1.6-5.15,3.24-7.89,4.93-8.82,5.46-18.55,11.48-26.84,18.16l-.19.15-.14-.2ZM377.67,268,395,294.06c8.27-6.64,17.93-12.61,26.69-18,2.67-1.65,5.26-3.25,7.69-4.8L412,245.1a202.43,202.43,0,0,0-18.12,10.77A181,181,0,0,0,377.67,268Z"/><polygon points="377.37 267.69 400.69 267.6 411.92 244.71 412.32 244.91 401.03 267.92 400.97 268.05 400.83 268.05 377.37 268.13 377.37 267.69"/><path class="cls-2" d="M327.68,305.74l-6.76-.6"/><path d="M320.92,305.14l-.22,0h0m7.19.71-.06.17-.17,0"/><path class="cls-2" d="M301.52,334.07l6.86-12.53,1.38-13.29-3-5.53"/><path class="cls-3" d="M301.52,334.07l.2-.36h0"/><path class="cls-4" d="M301.52,334.07l5.3-31.35a200.08,200.08,0,0,1,41.15,7L342.67,341C330.38,338.7,315.45,335.13,301.52,334.07Z"/><path class="cls-5" d="M307.13,302.74A200.44,200.44,0,0,1,348,309.67v0l-3.26,1c-11.83-3.34-23.75-4.41-35.9-6.07Z"/><path class="cls-6" d="M347,309.94c1.82-.08-2.75-1.31.94-.27l-.16,1-.17,1L324,319.23l0-.77,11.06-3.7S344.77,310.91,347,309.94Z"/><path d="M301.3,334l5.3-31.35,0-.2h.2a181,181,0,0,1,20.37,2.33A202.49,202.49,0,0,1,348,309.46l.19.05,0,.2-5.3,31.35,0,.22-.22,0c-2.92-.55-6-1.17-9.13-1.81-10.17-2.06-21.38-4.33-32-5.14l-.24,0,0-.24ZM307,303l-5.22,30.91c10.57.82,21.7,3.08,31.81,5.13,3.08.62,6.06,1.23,8.9,1.77l5.22-30.93a202.43,202.43,0,0,0-20.58-4.56A181,181,0,0,0,307,303Z"/><polygon points="306.97 302.56 324.03 318.46 347.88 309.46 348.04 309.88 324.06 318.93 323.93 318.98 323.83 318.88 306.67 302.88 306.97 302.56"/><path class="cls-2" d="M363.62,298.88l-4.09-5.42"/><path d="M359.54,293.46l-.12-.19h0m4.3,5.81-.16.07-.1-.14"/><path class="cls-2" d="M325.06,298.47l13.9-3.31,10.78-7.89,2.13-5.9"/><path class="cls-3" d="M325.06,298.47l.4-.1h0"/><path class="cls-4" d="M325.06,298.47l26.81-17.1a200.08,200.08,0,0,1,22.44,35.18l-26.81,17.1C341,323,333.62,309.51,325.06,298.47Z"/><path class="cls-5" d="M352.07,281.62a200.44,200.44,0,0,1,22.24,34.94h0l-2.91-1.77c-5.46-11-12.65-20.57-19.57-30.7Z"/><path class="cls-6" d="M373.48,316c1.28,1.29-.87-2.92.83.52l-.82.53-.88.56-21.47-12.46.6-.49,10.16,5.73S371.24,315,373.48,316Z"/><path d="M324.94,298.28l26.81-17.1.17-.11.13.15A181,181,0,0,1,364,297.91a202.49,202.49,0,0,1,10.53,18.55l.09.18-.17.11-26.81,17.1-.19.12-.12-.19c-1.55-2.53-3.14-5.21-4.78-8-5.29-8.93-11.12-18.77-17.65-27.18l-.15-.19.21-.13Zm26.88-16.61-26.43,16.86c6.48,8.39,12.27,18.16,17.53,27,1.6,2.7,3.15,5.32,4.66,7.78L374,316.47a202.43,202.43,0,0,0-10.42-18.33A181,181,0,0,0,351.82,281.67Z"/><polygon points="352.09 281.38 351.74 304.7 374.41 316.36 374.2 316.75 351.41 305.03 351.29 304.97 351.29 304.83 351.65 281.37 352.09 281.38"/><path class="cls-2" d="M410.51,224.57l-6.74-.79"/><path d="M403.77,223.78l-.22,0h0m7.17.91-.06.16-.17,0"/><path class="cls-2" d="M383.59,252.17l7.2-12.34,1.74-13.25-2.8-5.61"/><path class="cls-3" d="M383.59,252.17l.21-.36h0"/><path class="cls-4" d="M383.59,252.17,389.74,221A200.08,200.08,0,0,1,430.68,229l-6.15,31.19C412.32,257.59,397.48,253.61,383.59,252.17Z"/><path class="cls-5" d="M390.05,221a200.44,200.44,0,0,1,40.63,8v0l-3.29.88c-11.74-3.66-23.62-5.06-35.72-7Z"/><path class="cls-6" d="M429.73,229.29c1.82,0-2.71-1.38.95-.24l-.19,1-.2,1L406.45,238l.06-.77,11.16-3.39S427.45,230.21,429.73,229.29Z"/><path d="M383.37,252.13l6.15-31.19,0-.2.2,0a181,181,0,0,1,20.3,2.89,202.49,202.49,0,0,1,20.69,5.19l.19.06,0,.2-6.15,31.19,0,.22-.22,0c-2.9-.63-5.94-1.33-9.07-2.06-10.11-2.34-21.25-4.91-31.84-6l-.24,0,0-.24Zm6.55-30.91L383.86,252c10.55,1.11,21.61,3.67,31.65,6,3.06.71,6,1.39,8.84,2l6.07-30.77A202.43,202.43,0,0,0,410,224.08,181,181,0,0,0,389.92,221.22Z"/><polygon points="389.89 220.82 406.51 237.18 430.61 228.84 430.75 229.26 406.53 237.65 406.4 237.7 406.3 237.6 389.58 221.14 389.89 220.82"/><path class="cls-2" d="M363.62,243.33l-4.09-5.42"/><path d="M359.54,237.92l-.12-.19h0m4.3,5.81-.16.07-.1-.14"/><path class="cls-2" d="M325.06,242.93l13.9-3.31,10.78-7.89,2.13-5.9"/><path class="cls-3" d="M325.06,242.93l.4-.1h0"/><path class="cls-4" d="M325.06,242.93l26.81-17.1A200.08,200.08,0,0,1,374.31,261l-26.81,17.1C341,267.44,333.62,254,325.06,242.93Z"/><path class="cls-5" d="M352.07,226.07A200.44,200.44,0,0,1,374.31,261h0l-2.91-1.77c-5.46-11-12.65-20.57-19.57-30.7Z"/><path class="cls-6" d="M373.48,260.5c1.28,1.29-.87-2.92.83.52l-.82.53-.88.56-21.47-12.46.6-.49,10.16,5.73S371.24,259.48,373.48,260.5Z"/><path d="M324.94,242.74l26.81-17.1.17-.11.13.15A181,181,0,0,1,364,242.37a202.49,202.49,0,0,1,10.53,18.55l.09.18-.17.11-26.81,17.1-.19.12-.12-.19c-1.55-2.53-3.14-5.21-4.78-8-5.29-8.93-11.12-18.77-17.65-27.18l-.15-.19.21-.13Zm26.88-16.61L325.39,243c6.48,8.39,12.27,18.16,17.53,27,1.6,2.7,3.15,5.32,4.66,7.78L374,260.93a202.43,202.43,0,0,0-10.42-18.33A181,181,0,0,0,351.82,226.13Z"/><polygon points="352.09 225.83 351.74 249.15 374.41 260.81 374.2 261.21 351.41 249.49 351.29 249.43 351.29 249.29 351.65 225.83 352.09 225.83"/><path class="cls-2" d="M324.25,262.28l-6.76-.6"/><path d="M317.49,261.67l-.22,0h0m7.19.71-.06.17-.17,0"/><path class="cls-2" d="M298.08,290.6l6.87-12.53,1.38-13.29-2.95-5.53"/><path class="cls-3" d="M298.08,290.6l.2-.36h0"/><path class="cls-4" d="M298.08,290.6l5.3-31.35a200.08,200.08,0,0,1,41.14,7l-5.3,31.35C326.95,295.24,312,291.66,298.08,290.6Z"/><path class="cls-5" d="M303.7,259.27a200.44,200.44,0,0,1,40.83,6.94v0l-3.26,1c-11.83-3.34-23.75-4.41-35.9-6.08Z"/><path class="cls-6" d="M343.59,266.48c1.82-.08-2.75-1.31.94-.27l-.16,1-.17,1-23.64,7.57,0-.77,11.06-3.7S341.33,267.45,343.59,266.48Z"/><path d="M297.86,290.56l5.3-31.35,0-.2h.2a181,181,0,0,1,20.37,2.34A202.49,202.49,0,0,1,344.59,266l.19.05,0,.2-5.3,31.35,0,.22-.22,0c-2.92-.55-6-1.17-9.13-1.81-10.17-2.06-21.38-4.34-32-5.14l-.24,0,0-.24Zm5.71-31.08-5.23,30.91c10.57.83,21.7,3.08,31.8,5.13,3.08.62,6.06,1.23,8.9,1.77l5.23-30.93a202.43,202.43,0,0,0-20.58-4.56A181,181,0,0,0,303.57,259.49Z"/><polygon points="303.54 259.09 320.59 275 344.45 266 344.61 266.42 320.62 275.46 320.49 275.51 320.39 275.42 303.23 259.42 303.54 259.09"/><path class="cls-2" d="M380,262.76l-6.76-.6"/><path d="M373.26,262.15l-.22,0h0m7.19.71-.06.17-.17,0"/><path class="cls-2" d="M353.86,291.08l6.87-12.53,1.38-13.29-2.95-5.53"/><path class="cls-3" d="M353.86,291.08l.2-.36h0"/><path class="cls-4" d="M353.86,291.08l5.3-31.35a200.08,200.08,0,0,1,41.14,7L395,298C382.72,295.72,367.78,292.14,353.86,291.08Z"/><path class="cls-5" d="M359.47,259.75a200.44,200.44,0,0,1,40.83,6.94v0l-3.26,1c-11.83-3.34-23.75-4.41-35.9-6.08Z"/><path class="cls-6" d="M399.36,267c1.82-.08-2.75-1.31.94-.27l-.16,1-.17,1-23.64,7.57,0-.77,11.06-3.7S397.11,267.94,399.36,267Z"/><path d="M353.64,291l5.3-31.35,0-.2h.2a181,181,0,0,1,20.37,2.34,202.49,202.49,0,0,1,20.82,4.63l.19.05,0,.2-5.3,31.35,0,.22-.22,0c-2.92-.55-6-1.17-9.13-1.81-10.17-2.06-21.38-4.34-32-5.14l-.24,0,0-.24ZM359.34,260l-5.23,30.91c10.57.83,21.7,3.08,31.8,5.13,3.08.62,6.06,1.23,8.9,1.77L400,266.85a202.43,202.43,0,0,0-20.58-4.56A181,181,0,0,0,359.34,260Z"/><polygon points="359.31 259.57 376.37 275.48 400.22 266.48 400.38 266.9 376.39 275.95 376.26 275.99 376.16 275.9 359 259.9 359.31 259.57"/><path class="cls-2" d="M335.49,201.45l-6.76-.6"/><path d="M328.73,200.85l-.22,0h0m7.19.71-.06.17-.17,0"/><path class="cls-2" d="M309.32,229.78l6.87-12.53L317.57,204l-2.95-5.53"/><path class="cls-3" d="M309.32,229.78l.2-.36h0"/><path class="cls-4" d="M309.32,229.78l5.3-31.35a200.08,200.08,0,0,1,41.14,7l-5.3,31.35C338.18,234.41,323.25,230.84,309.32,229.78Z"/><path class="cls-5" d="M314.94,198.45a200.44,200.44,0,0,1,40.83,6.94v0l-3.26,1c-11.83-3.34-23.75-4.41-35.9-6.08Z"/><path class="cls-6" d="M354.83,205.66c1.82-.08-2.75-1.31.94-.27l-.16,1-.17,1-23.64,7.57,0-.77,11.06-3.7S352.57,206.63,354.83,205.66Z"/><path d="M309.1,229.74l5.3-31.35,0-.2h.2A181,181,0,0,1,335,200.54a202.49,202.49,0,0,1,20.82,4.63l.19.05,0,.2-5.3,31.35,0,.22-.22,0c-2.92-.55-6-1.17-9.13-1.81-10.17-2.06-21.38-4.34-32-5.14l-.24,0,0-.24Zm5.71-31.08-5.23,30.91c10.57.83,21.7,3.08,31.8,5.13,3.08.62,6.06,1.23,8.9,1.77l5.23-30.93A202.43,202.43,0,0,0,334.93,201,181,181,0,0,0,314.81,198.66Z"/><polygon points="314.77 198.27 331.83 214.17 355.69 205.18 355.84 205.6 331.86 214.64 331.73 214.69 331.63 214.59 314.47 198.59 314.77 198.27"/><path class="cls-2" d="M426.28,308.16,421,312.38"/><path d="M421,312.38l-.18.13h0m5.7-4.44.07.16-.14.11"/><path class="cls-2" d="M426.87,346.71l-3.67-13.81L415,322.33l-6-2"/><path class="cls-3" d="M426.87,346.71l-.11-.4h0"/><path class="cls-4" d="M426.87,346.71l-17.79-26.35A200.08,200.08,0,0,1,443.68,297l17.79,26.35C451,330.16,437.69,337.87,426.87,346.71Z"/><path class="cls-5" d="M409.33,320.16A200.44,200.44,0,0,1,443.68,297v0L442,300c-10.87,5.74-20.24,13.18-30.18,20.36Z"/><path class="cls-6" d="M443.18,297.86c1.26-1.31-2.89.95.49-.84l.55.81.58.86-11.89,21.78-.5-.59,5.46-10.31S442.22,300.12,443.18,297.86Z"/><path d="M426.69,346.84,408.9,320.49l-.11-.16.15-.13a181,181,0,0,1,16.36-12.36,202.49,202.49,0,0,1,18.27-11l.18-.09.11.17,17.79,26.35.13.19-.19.12c-2.49,1.61-5.13,3.27-7.86,5-8.79,5.52-18.47,11.61-26.71,18.35l-.19.15-.14-.2Zm-17.3-26.44,17.54,26c8.22-6.69,17.84-12.74,26.57-18.22,2.66-1.67,5.24-3.29,7.66-4.86l-17.55-26a202.43,202.43,0,0,0-18,10.89A181,181,0,0,0,409.38,320.4Z"/><polygon points="409.08 320.14 432.41 319.89 443.47 296.92 443.88 297.12 432.75 320.21 432.69 320.33 432.55 320.33 409.09 320.58 409.08 320.14"/><path class="cls-2" d="M359.31,211.72l-3.4,5.87"/><path d="M355.91,217.6l-.12.18h0m3.68-6.22.13.12-.09.15"/><path class="cls-2" d="M373.93,247.41l-8.45-11.51L354,229l-6.26.34"/><path class="cls-3" d="M373.93,247.41l-.25-.33h0"/><path class="cls-4" d="M373.93,247.41l-26.18-18A200.08,200.08,0,0,1,371.44,195l26.18,18C390.33,223.2,380.78,235.23,373.93,247.41Z"/><path class="cls-5" d="M347.91,229.08A200.44,200.44,0,0,1,371.44,195h0l-.5,3.37c-8,9.31-14,19.66-20.67,30Z"/><path class="cls-6" d="M371.29,196c.69-1.68-2.35,1.94.15-1l.8.55.86.59L370,220.77l-.68-.36,1.32-11.59S371.22,198.43,371.29,196Z"/><path d="M373.81,247.59l-26.18-18-.16-.11.09-.18a181,181,0,0,1,10.72-17.48,202.49,202.49,0,0,1,13-16.92l.13-.15.16.11,26.18,18,.19.13-.13.18c-1.73,2.41-3.58,4.92-5.5,7.51-6.16,8.35-13,17.55-18.18,26.83l-.12.21-.2-.14ZM348,229.29l25.81,17.79c5.21-9.23,12-18.37,18.09-26.66,1.87-2.53,3.68-5,5.36-7.32l-25.82-17.8A202.43,202.43,0,0,0,358.65,212,181,181,0,0,0,348,229.29Z"/><polygon points="347.67 229.16 369.3 220.41 371.22 194.99 371.66 195.02 369.73 220.58 369.72 220.72 369.59 220.77 347.84 229.57 347.67 229.16"/><path class="cls-2" d="M387.3,295.26l-4.52,5.06"/><path d="M382.78,300.32l-.16.16h0m4.87-5.34.1.15-.12.13"/><path class="cls-2" d="M394.72,333.6l-6.09-13.17-10-9.24-6.26-1"/><path class="cls-3" d="M394.72,333.6l-.18-.38h0"/><path class="cls-4" d="M394.72,333.6,372.4,310.17a196.6,196.6,0,0,1,30.2-28.79l22.33,23.42C415.71,313.25,403.89,323.06,394.72,333.6Z"/><path class="cls-5" d="M372.6,309.93a197,197,0,0,1,30-28.55l0,0-1.16,3.21c-9.77,7.46-17.76,16.37-26.36,25.12Z"/><path class="cls-6" d="M402.26,282.3c1-1.51-2.7,1.4.34-.92l.69.72.73.77-7.95,23.61-.61-.5,3.6-11.15S401.71,284.71,402.26,282.3Z"/><path d="M394.56,333.75l-22.33-23.42-.14-.15.13-.15a177.85,177.85,0,0,1,14.05-14.93,199,199,0,0,1,16.19-13.89l.16-.12.14.15,22.33,23.42.16.17-.17.15c-2.19,2-4.51,4.08-6.92,6.22-7.74,6.91-16.28,14.52-23.27,22.55l-.16.18-.17-.18ZM372.7,310.17l22,23.1c7-8,15.45-15.54,23.15-22.41,2.34-2.09,4.62-4.12,6.74-6.06l-22-23.11a198.92,198.92,0,0,0-16,13.74A177.89,177.89,0,0,0,372.7,310.17Z"/><polygon points="372.36 309.95 395.46 305.98 402.38 281.32 402.82 281.45 395.86 306.24 395.82 306.37 395.69 306.4 372.44 310.39 372.36 309.95"/><g id="Layer_12" data-name="Layer 12"><path class="cls-7" d="M237.72,325.28c10.45-2.73,24-4.05,35.36,2.25,14.21,6.91,13.51,17.59,13.51,17.59l-53.89-3.71.71,2.53-10.72-.15-1.6-11.52-.09-.68A84.17,84.17,0,0,1,237.72,325.28Z"/><path class="cls-8" d="M175.81,325.28c2.15-3.91,5.54-11.5,7.71-23.48,3.07-17,5.45-38.32,5.86-42.13-15.67-5.3-29.15-17.59-38.29-34.13a125.92,125.92,0,0,0,111.36,0c-9.15,16.54-22.62,28.83-38.29,34.13.41,3.81,2.79,25.17,5.86,42.13,2.17,12,5.56,19.57,7.71,23.48A84.17,84.17,0,0,0,221,331.59l.09.68c-.9-4.14-2.9-14.68-4.18-31.81a217.6,217.6,0,0,1,.4-39,53.71,53.71,0,0,1-21,0,217.78,217.78,0,0,1,.4,39c-1.28,17.13-3.28,27.66-4.18,31.81l.09-.68A84.13,84.13,0,0,0,175.81,325.28Z"/><path class="cls-7" d="M140.46,327.54c11.33-6.31,24.9-5,35.36-2.25a84.13,84.13,0,0,1,16.74,6.31l-.09.68-1.6,11.52-10.72.15.7-2.53-53.89,3.71S126.25,334.44,140.46,327.54Z"/><path class="cls-9" d="M133.54,135.32c0-7.6,5.86-13.76,13.08-13.76a12.49,12.49,0,0,1,5.1,1.09c12.44-21.79,32.46-35.93,55.06-35.93,22.44,0,42.35,13.95,54.8,35.48a12.48,12.48,0,0,1,4-.64c7.23,0,13.08,6.16,13.08,13.76a13.87,13.87,0,0,1-6.88,12.12A110.75,110.75,0,0,1,275,170.13c-18,12.78-41.91,20.59-68.23,20.59s-50.27-7.81-68.23-20.59a110.7,110.7,0,0,1,3.11-22.06A13.78,13.78,0,0,1,133.54,135.32Z"/><path class="cls-7" d="M191.33,97.83s-10.22,21.5-39.53,24.64c12.44-21.72,32.44-35.81,55-35.81,22.39,0,42.26,13.88,54.72,35.32C227.79,118,191.33,97.83,191.33,97.83Z"/><path class="cls-9" d="M295.68,234.91h0s12.22,12.47,10.9,15.66-7.63-2.8-7.63-2.8,4.7,9.24.95,10.94-8-8.3-8-8.3,2.81,10.91-1.16,11.34-5.05-13.1-5.05-13.1-3,8.09-6.6,6.82,4.29-18.59,4.37-18.76h0Z"/><path class="cls-10" d="M139.32,195.63c.41.23.52-.81.79-1.22l.09-.14a101.45,101.45,0,0,0,10.9,31.26,125.92,125.92,0,0,0,111.36,0,100.72,100.72,0,0,0,10.33-28.31,52.29,52.29,0,0,1,2.63,5.48l.06.14.36.94c.2.54.4,1.08.59,1.63.45,1.29.88,2.59,1.28,3.9a156,156,0,0,1,3.95,16.08c.42,2.19.82,4.4,1.16,6.61.14.92.28,1.83.41,2.75.06.46.13.91.18,1.36l-.05-.39a9.94,9.94,0,0,0,.18,1h0l12.13-1.78a158.36,158.36,0,0,0-6.9-31.88c-2.78-8.13-6.77-17.72-13.86-22.41.11-2,.17-4.06.17-6.12q0-2.34-.1-4.65c-18,12.78-41.91,20.59-68.22,20.59s-50.27-7.81-68.23-20.59q-.09,2.31-.09,4.65c0,1.62,0,3.22.11,4.82,0,0-37.48-39.21-40.12-86.71L84.38,95.86S106.29,176.82,139.32,195.63Z"/><path class="cls-9" d="M97.47,92.33h0L85.54,95.46h0c-.14-.13-13.63-13.09-10.72-15.69s8.55,3.73,8.55,3.73-3.8-13,0-14.14,5.1,10.06,5.1,10.06.35-10.92,4.43-10.82,3,10.52,3,10.52,3.73-8,6.09-5.6S97.47,92.33,97.47,92.33Z"/><path class="cls-7" d="M195.86,190q5.13.41,10.4.41,4,0,7.93-.24l-5.88,10.7,6.6,25.86s-8,9.93-9.84,9.93-9.84-9.93-9.84-9.93l6.59-25.86Z"/><ellipse class="cls-10" cx="223.46" cy="145.8" rx="11.68" ry="15.25"/><path class="cls-7" d="M220,145.62a3.37,3.37,0,0,0,3.62-3.06,3.06,3.06,0,0,0-2-2.74,4,4,0,0,1,1.91-.5c2.74,0,5,2.9,5,6.49s-2.22,6.49-5,6.49-5-2.9-5-6.49c0-.15,0-.3,0-.45A4.12,4.12,0,0,0,220,145.62Z"/><ellipse class="cls-10" cx="186.67" cy="145.8" rx="11.68" ry="15.25"/><path class="cls-7" d="M183.18,145.62a3.37,3.37,0,0,0,3.62-3.06,3.06,3.06,0,0,0-2-2.74,4,4,0,0,1,1.9-.5c2.74,0,5,2.9,5,6.49s-2.22,6.49-5,6.49-5-2.9-5-6.49c0-.15,0-.3,0-.45A4.13,4.13,0,0,0,183.18,145.62Z"/><path class="cls-7" d="M192.7,162.85a.4.4,0,0,1,.3-.14h1.62a.41.41,0,0,1,.4.37,3.1,3.1,0,0,0,3,2.84,2.92,2.92,0,0,0,1.71-.55l.63-.45a.39.39,0,0,1,.55.1l.46.63a4.5,4.5,0,0,0,7.41,0l.45-.63a.39.39,0,0,1,.55-.1l.63.45a2.93,2.93,0,0,0,1.71.55,3.1,3.1,0,0,0,3-2.84.41.41,0,0,1,.4-.37h1.61a.4.4,0,0,1,.3.14.46.46,0,0,1,.11.32,5.6,5.6,0,0,1-5.43,5.28A5.13,5.13,0,0,1,210,168a6.79,6.79,0,0,1-9.86,0,5.23,5.23,0,0,1-2.11.45,5.6,5.6,0,0,1-5.43-5.28A.43.43,0,0,1,192.7,162.85Z"/><path class="cls-7" d="M205.17,181.67c21,0,31.59-10.08,32-10.5a1.32,1.32,0,0,0,.07-1.8,1.17,1.17,0,0,0-1.71-.07h0c-.1.1-10.43,9.83-30.4,9.83s-30.5-9.74-30.61-9.84a1.17,1.17,0,0,0-1.71.09,1.31,1.31,0,0,0,.09,1.79C173.39,171.6,184.2,181.67,205.17,181.67Z"/><path class="cls-7" d="M237.63,131.91c1.28-1-2.19-6.16-6.08-10.15-3.06-3.15-7.8-4.35-9.06-4.21-2.87.32-5.37,2.78-3.91,4.2s5.5-.79,8.8,1.06C235.92,127.59,236.34,132.91,237.63,131.91Z"/><path class="cls-7" d="M172.5,131.91c-1.28-1,2.19-6.16,6.08-10.15,3.06-3.15,7.8-4.35,9.06-4.21,2.87.32,5.36,2.78,3.91,4.2s-5.5-.79-8.81,1.06C174.21,127.59,173.79,132.91,172.5,131.91Z"/></g><g id="Layer_5" data-name="Layer 5"><line class="cls-11" x1="119.03" y1="47.03" x2="140.74" y2="26.97"/><line class="cls-11" x1="103.49" y1="27.63" x2="112.08" y2="0.3"/><line class="cls-11" x1="74.4" y1="31.63" x2="65.74" y2="6.3"/><line class="cls-11" x1="56.04" y1="42.97" x2="34.08" y2="26.97"/><line class="cls-11" x1="31.41" y1="58.78" x2="8.08" y2="46.64"/><line class="cls-11" x1="26.08" y1="76.97" x2="0.08" y2="78.97"/></g></g></g></svg>