<svg xmlns="http://www.w3.org/2000/svg" viewBox="0 0 500.23 446.19"><defs><style>.cls-1{fill:#ff5b2b;}.cls-2{fill:#b80e01;}.cls-3{fill:#f3f3f5;}</style></defs><title>Asset 2</title><g id="Layer_2" data-name="Layer 2"><g id="Objects"><path class="cls-1" d="M11,200.62c-11.56,17-14.45,39.6-6.69,58.44,8.25,20,26.91,32,49.94,32l88.79-.07c-3.06,18.16-7.09,43.51-6.75,49.16h0c2.52,37.5,25.64,81.53,26.66,83.45,6.91,12.89,27.63,22.62,48.21,22.62a64.06,64.06,0,0,0,13.42-1.41c33.41-7.16,41.61-30.29,41.19-42.95-.05-2.1-.89-38.13-1.17-53.24,6.27-13,18-33.71,29.43-52.12,12.52-20.09,21-31.49,25.83-37.08a36.1,36.1,0,0,0,6.76.63H463.09a37.18,37.18,0,0,0,37.14-37.14V33.69l-.05-.63A36.07,36.07,0,0,0,464.33,0H341.76A35.94,35.94,0,0,0,309.9,19.36a58.37,58.37,0,0,0-24.72-5.74H102.24C60.81,13.62,42.48,33,34.4,49.19A71.05,71.05,0,0,0,29.12,96c-9.56,14.61-14.48,34.39-9.13,52.53C11.75,161.07,4.84,180.16,11,200.62Z"/><path class="cls-2" d="M29.66,203.46C5.94,227,13.23,274.82,54.27,274.82l108.07-.09c-4.13,22.82-10.11,60.8-9.84,64.3,2.28,33.92,23.9,75.23,24.78,76.88,3.95,7.38,23.9,17.32,43.93,13,25.83-5.54,28.55-22,28.38-26.61,0,0-1.06-45.17-1.24-57.2,12.4-27.15,55.11-98.69,68-104.12a20.16,20.16,0,0,0,10.28,2.81H463.09A20.85,20.85,0,0,0,484,222.88V34.32a19.78,19.78,0,0,0-19.68-18.1H341.76A19.69,19.69,0,0,0,322.08,35.9v6.24s-4.56.35-6.59-1c-7.91-5-17.65-11.33-30.31-11.33H102.24c-68.36,0-61.07,60.71-54.83,69-11.51,12.57-18.63,34.8-8.87,52.28-7.56,8-20.74,29.79-8.88,52.37Z"/><rect class="cls-2" x="345.97" y="35.9" width="118.45" height="188.21"/><path class="cls-3" d="M61.56,205l1-4.66c-31.45-9-14.67-45.25,7.91-47.62l1.15-4.66c-30.23-7.64-15.82-45.07,7.81-47.62l1.15-4.66c-24.69-4-18.72-46.13,18.62-46.13l186.1-.08c13.09,0,25,15,34.71,15h8.43v144.8c-10.45,6.59-23.37,15-30.56,21.09-13.55,11.59-69.08,101.32-69.08,112.57S230,402.91,230,402.91s-10.81,14.06-35.15,3.78c0,0-20.47-38.4-22.58-69,0,0,9.22-62.88,14.15-82.65H57.52c-31.72-.09-25.66-45.35,4-50Z"/><path class="cls-3" d="M389.08,58.31a16.11,16.11,0,1,1,16.11,16.11A16.11,16.11,0,0,1,389.08,58.31Z"/></g></g></svg>